<svg data-v-423bf9ae="" xmlns="http://www.w3.org/2000/svg" viewBox="0 0 298 90" class="iconLeft"><!----><!----><!----><g data-v-423bf9ae="" id="6c12bd63-fa47-4137-bdb8-b955bffdfe12" fill="white" transform="matrix(6.072874423584482,0,0,6.072874423584482,136.56857732828297,-10.870446911277703)"><path d="M-0.08 14.01L-0.08 14.01Q-0.17 14.01-0.22 13.96L-0.22 13.96L-0.22 13.96Q-0.28 13.90-0.28 13.82L-0.28 13.82L-0.28 13.82Q-0.28 13.66-0.08 13.62L-0.08 13.62L-0.08 13.62Q0.97 13.37 1.34 12.29L1.34 12.29L4.03 4.48L4.03 4.48Q4.12 4.30 4.26 4.34L4.26 4.34L4.87 4.41L4.87 4.41Q5.01 4.45 5.03 4.56L5.03 4.56L7.99 13.19L7.99 13.19Q8.06 13.38 8.22 13.50L8.22 13.50L8.22 13.50Q8.37 13.62 8.58 13.62L8.58 13.62L8.85 13.62L8.85 13.62Q8.95 13.62 9.00 13.68L9.00 13.68L9.00 13.68Q9.04 13.73 9.04 13.82L9.04 13.82L9.04 13.82Q9.04 13.90 9.00 13.96L9.00 13.96L9.00 13.96Q8.95 14.01 8.85 14.01L8.85 14.01L5.73 14.01L5.73 14.01Q5.63 14.01 5.57 13.96L5.57 13.96L5.57 13.96Q5.52 13.90 5.52 13.82L5.52 13.82L5.52 13.82Q5.52 13.73 5.57 13.68L5.57 13.68L5.57 13.68Q5.63 13.62 5.73 13.62L5.73 13.62L6.20 13.62L6.20 13.62Q6.36 13.62 6.45 13.51L6.45 13.51L6.45 13.51Q6.55 13.40 6.55 13.24L6.55 13.24L6.55 13.24Q6.55 13.16 6.54 13.12L6.54 13.12L5.68 10.67L2.21 10.67L1.67 12.35L1.67 12.35Q1.60 12.56 1.60 12.70L1.60 12.70L1.60 12.70Q1.60 13.08 1.86 13.35L1.86 13.35L1.86 13.35Q2.13 13.62 2.53 13.62L2.53 13.62L2.60 13.62L2.60 13.62Q2.67 13.62 2.72 13.68L2.72 13.68L2.72 13.68Q2.76 13.73 2.76 13.82L2.76 13.82L2.76 13.82Q2.76 13.90 2.72 13.96L2.72 13.96L2.72 13.96Q2.67 14.01 2.60 14.01L2.60 14.01L-0.08 14.01ZM4.02 5.70L2.31 10.32L5.59 10.32L4.02 5.70ZM11.09 14.01L11.09 14.01Q11.00 14.01 10.93 13.96L10.93 13.96L10.93 13.96Q10.86 13.90 10.86 13.82L10.86 13.82L10.86 13.82Q10.86 13.73 10.93 13.68L10.93 13.68L10.93 13.68Q11.00 13.62 11.09 13.62L11.09 13.62L11.70 13.62L11.70 13.62Q11.86 13.62 11.97 13.50L11.97 13.50L11.97 13.50Q12.08 13.38 12.08 13.24L12.08 13.24L12.08 4.82L12.08 4.82Q11.37 4.82 10.91 4.91L10.91 4.91L10.91 4.91Q10.44 5.00 10.04 5.33L10.04 5.33L10.04 5.33Q9.65 5.66 9.35 6.33L9.35 6.33L9.10 6.82L9.10 6.82Q9.09 6.85 9.06 6.91L9.06 6.91L9.06 6.91Q9.03 6.97 8.96 6.97L8.96 6.97L8.96 6.97Q8.89 6.97 8.83 6.93L8.83 6.93L8.83 6.93Q8.78 6.89 8.78 6.82L8.78 6.82L8.92 4.66L8.92 4.66Q8.92 4.55 8.99 4.48L8.99 4.48L8.99 4.48Q9.07 4.41 9.17 4.41L9.17 4.41L16.35 4.41L16.35 4.41Q16.46 4.41 16.54 4.49L16.54 4.49L16.54 4.49Q16.62 4.56 16.63 4.66L16.63 4.66L16.72 6.82L16.72 6.82Q16.72 6.89 16.68 6.93L16.68 6.93L16.68 6.93Q16.65 6.97 16.59 6.97L16.59 6.97L16.59 6.97Q16.52 6.97 16.44 6.82L16.44 6.82L16.18 6.33L16.18 6.33Q15.90 5.67 15.50 5.34L15.50 5.34L15.50 5.34Q15.09 5.01 14.62 4.91L14.62 4.91L14.62 4.91Q14.15 4.82 13.48 4.82L13.48 4.82L13.48 13.24L13.48 13.24Q13.48 13.40 13.59 13.51L13.59 13.51L13.59 13.51Q13.69 13.62 13.83 13.62L13.83 13.62L14.46 13.62L14.46 13.62Q14.53 13.62 14.59 13.68L14.59 13.68L14.59 13.68Q14.66 13.73 14.66 13.82L14.66 13.82L14.66 13.82Q14.66 13.90 14.59 13.96L14.59 13.96L14.59 13.96Q14.53 14.01 14.46 14.01L14.46 14.01L11.09 14.01ZM21.95 14.14L21.95 14.14Q20.75 14.14 19.73 13.47L19.73 13.47L19.73 13.47Q18.72 12.80 18.12 11.66L18.12 11.66L18.12 11.66Q17.53 10.51 17.53 9.18L17.53 9.18L17.53 9.18Q17.53 7.85 18.12 6.72L18.12 6.72L18.12 6.72Q18.72 5.59 19.73 4.92L19.73 4.92L19.73 4.92Q20.75 4.26 21.95 4.26L21.95 4.26L21.95 4.26Q22.97 4.26 23.88 4.75L23.88 4.75L23.88 4.75Q24.01 4.80 24.12 4.80L24.12 4.80L24.12 4.80Q24.42 4.80 24.65 4.61L24.65 4.61L24.65 4.61Q24.72 4.52 24.78 4.50L24.78 4.50L24.78 4.50Q24.84 4.48 24.93 4.48L24.93 4.48L24.93 4.48Q25.03 4.48 25.07 4.52L25.07 4.52L25.07 4.52Q25.12 4.56 25.12 4.66L25.12 4.66L25.19 6.75L25.19 6.75Q25.19 6.83 25.14 6.88L25.14 6.88L25.14 6.88Q25.09 6.93 25.03 6.93L25.03 6.93L25.03 6.93Q24.88 6.93 24.82 6.73L24.82 6.73L24.82 6.73Q24.43 5.75 23.71 5.18L23.71 5.18L23.71 5.18Q22.99 4.61 21.95 4.61L21.95 4.61L21.95 4.61Q20.71 4.61 19.94 5.71L19.94 5.71L19.94 5.71Q19.18 6.82 19.18 9.18L19.18 9.18L19.18 9.18Q19.18 11.58 19.94 12.70L19.94 12.70L19.94 12.70Q20.71 13.82 21.95 13.82L21.95 13.82L21.95 13.82Q22.82 13.82 23.41 13.36L23.41 13.36L23.41 13.36Q24.00 12.89 24.04 12.07L24.04 12.07L24.04 10.68L24.04 10.68Q24.04 10.53 23.93 10.42L23.93 10.42L23.93 10.42Q23.83 10.30 23.67 10.30L23.67 10.30L23.07 10.30L23.07 10.30Q22.99 10.30 22.93 10.24L22.93 10.24L22.93 10.24Q22.86 10.18 22.86 10.09L22.86 10.09L22.86 10.09Q22.86 10.02 22.93 9.98L22.93 9.98L22.93 9.98Q22.99 9.94 23.07 9.94L23.07 9.94L26.19 9.94L26.19 9.94Q26.28 9.94 26.35 9.98L26.35 9.98L26.35 9.98Q26.42 10.02 26.42 10.09L26.42 10.09L26.42 10.09Q26.42 10.18 26.35 10.24L26.35 10.24L26.35 10.24Q26.28 10.30 26.19 10.30L26.19 10.30L25.82 10.30L25.82 10.30Q25.66 10.30 25.54 10.42L25.54 10.42L25.54 10.42Q25.42 10.53 25.42 10.68L25.42 10.68L25.42 13.15L25.47 13.92L25.47 13.92Q25.47 14.00 25.41 14.07L25.41 14.07L25.41 14.07Q25.35 14.14 25.28 14.14L25.28 14.14L25.28 14.14Q25.13 14.14 25.07 14.00L25.07 14.00L24.63 12.96L24.60 12.96L24.60 12.96Q23.98 13.55 23.35 13.85L23.35 13.85L23.35 13.85Q22.72 14.14 21.95 14.14L21.95 14.14Z"></path></g><!----><g data-v-423bf9ae="" id="f554b405-babf-4cf7-9b24-f7287af207a2" transform="matrix(1.2127127339627684,0,0,1.2127127339627684,-3.005482833812586,-14.743994389834917)" stroke="none" fill="white"><path d="M9.1 87.1l8.1-.5c1.7-.1 3.1-1.2 3.7-2.6l35.4 1.5c3.9.4 7.6-.1 11.1-1.9l1-.5 26.7-15.6c1.3-.8 2.2-2.1 2.3-3.6.1-1.8-1-3.8-3.5-4-1.8-.1-5.6 1.9-6.6 2.4-3.7 1.8-8.7 4.7-12.1 7-.2.2-.5.4-.8.5-1.5 1-3.1 1.6-4.8 2-9.7 2.1-23.8 2.3-23.8 2.3H45c-.6 0-1.2-.4-1.3-1-.1-.7.4-1.3 1.1-1.3l21-2c2.3-.3 4.2-2.4 3.9-4.8-.2-2.4-2.5-4.2-4.8-4l-18.7-.2c-1.3 0-3.3-.3-4.5-.7-12-3.5-18.8-.2-22.4 1.3-.8-1.3-2.3-2.2-4-2.1l-8.1.5c-2.7.2-4.7 2.4-4.5 5L4 82.7c.1 2.6 2.4 4.6 5.1 4.4zm3-9.5c1.5 0 2.7 1.2 2.7 2.6s-1.2 2.6-2.7 2.6c-1.5 0-2.7-1.2-2.7-2.6s1.1-2.6 2.7-2.6zm61.5-14.9c2.8-1.5 8.3-4.2 11.4-5.4 1.5-.6 3-.6 4.4.4-1.1.4-2.1.9-3 1.3-3.2 1.6-8.7 4.6-11.5 6.5-.3.2-.6.4-.8.6v-1.5c-.1-.6-.2-1.2-.4-1.8l-.1-.1zm-3.7-4.5c1.8-1 6-2.3 7.8-3.1 1.5-.6 3-.6 4.3.3-2.2 1-6.4 2.4-8.4 3.5l-1.4.7c-.1.1-.2.2-.4.2-.4-.5-1.2-1.1-1.9-1.6zm-28-7.6h23c1.6 0 3-1.3 3-3V31.1c0-1.6-1.3-3-3-3h-.1v-3.9c0-6.2-5.1-11.3-11.3-11.3-6.2 0-11.3 5.1-11.3 11.3v3.9h-.3c-1.6 0-3 1.3-3 3v16.5c0 1.6 1.3 3 3 3zm13.2-10.5c-.2.2-.3.3-.3.6v3.6c0 .5-.2 1-.7 1.2-1.1.5-2.1-.2-2.1-1.2v-3.6c0-.2-.1-.4-.3-.6-1.1-.8-1.5-2.2-.9-3.4.5-1.2 1.8-1.9 3.1-1.6 1.4.3 2.3 1.4 2.3 2.7.1 1-.3 1.7-1.1 2.3zm-8-15.9c0-3.5 2.9-6.4 6.4-6.4s6.4 2.9 6.4 6.4v3.9H47.1v-3.9z"></path></g><!----></svg>